<svg xmlns="http://www.w3.org/2000/svg" viewBox="0 0 512 512"><rect width="512" height="512" rx="112" fill="#1d4e73"/><circle cx="256" cy="300" r="190" fill="#2f7fa8"/><g transform="translate(36 22) scale(1.85)"><ellipse cx="120" cy="228" rx="72" ry="9" fill="rgba(29,78,115,0.18)"></ellipse><g><g><path d="M150,198 C180,214 214,206 220,178 C223,164 216,154 208,154 C212,164 211,178 200,188 C186,199 166,198 154,188 Z" fill="#1d3557" stroke="#09101a" stroke-width="3" stroke-linejoin="round"></path><path d="M206,156 L210,132 L226,150 L214,160 Z" fill="#264653" stroke="#0e1a1f" stroke-width="3" stroke-linejoin="round"></path></g><g><path d="M104,148 C86,122 60,102 24,94 C36,110 38,124 32,138 C48,132 58,136 62,150 C72,142 84,146 90,160 Z" fill="#264653" stroke="#0e1a1f" stroke-width="3" stroke-linejoin="round"></path><path d="M104,148 C86,122 60,102 24,94 M54,118 C50,128 54,138 62,150 M70,128 C72,138 80,148 90,160" fill="none" stroke="#0e1a1f" stroke-width="2.5" stroke-linecap="round"></path></g><g><path d="M136,148 C154,122 180,102 216,94 C204,110 202,124 208,138 C192,132 182,136 178,150 C168,142 156,146 150,160 Z" fill="#264653" stroke="#0e1a1f" stroke-width="3" stroke-linejoin="round"></path><path d="M136,148 C154,122 180,102 216,94 M186,118 C190,128 186,138 178,150 M170,128 C168,138 160,148 150,160" fill="none" stroke="#0e1a1f" stroke-width="2.5" stroke-linecap="round"></path></g><g><path d="M120,112 C150,112 168,140 168,172 C168,204 147,218 120,218 C93,218 72,204 72,172 C72,140 90,112 120,112 Z" fill="#1d3557" stroke="#09101a" stroke-width="3"></path><ellipse cx="120" cy="178" rx="29" ry="36" fill="#bde0fe" stroke="#63b6fd" stroke-width="2"></ellipse><path d="M104.3,160 Q120,166 135.7,160" fill="none" stroke="#63b6fd" stroke-width="2" stroke-linecap="round" opacity="0.7"></path><path d="M100.1,172 Q120,178 139.9,172" fill="none" stroke="#63b6fd" stroke-width="2" stroke-linecap="round" opacity="0.7"></path><path d="M100.1,184 Q120,190 139.9,184" fill="none" stroke="#63b6fd" stroke-width="2" stroke-linecap="round" opacity="0.7"></path><path d="M104.3,196 Q120,202 135.7,196" fill="none" stroke="#63b6fd" stroke-width="2" stroke-linecap="round" opacity="0.7"></path><g fill="#1d3557" stroke="#09101a" stroke-width="3"><ellipse cx="96" cy="214" rx="17" ry="10"></ellipse><ellipse cx="144" cy="214" rx="17" ry="10"></ellipse></g><g fill="#a4d4fe"><circle cx="86" cy="220" r="3.2"></circle><circle cx="96" cy="220" r="3.2"></circle><circle cx="106" cy="220" r="3.2"></circle><circle cx="134" cy="220" r="3.2"></circle><circle cx="144" cy="220" r="3.2"></circle><circle cx="154" cy="220" r="3.2"></circle></g><path d="M84,160 C76,170 80,182 92,180" fill="#1d3557" stroke="#09101a" stroke-width="3" stroke-linecap="round"></path><path d="M156,160 C164,170 160,182 148,180" fill="#1d3557" stroke="#09101a" stroke-width="3" stroke-linecap="round"></path></g><g><path d="M66,84 C54,74 44,66 36,64 C42,74 44,84 52,94 Z" fill="#264653" stroke="#0e1a1f" stroke-width="3" stroke-linejoin="round"></path><path d="M174,84 C186,74 196,66 204,64 C198,74 196,84 188,94 Z" fill="#264653" stroke="#0e1a1f" stroke-width="3" stroke-linejoin="round"></path><g fill="#a4d4fe" stroke="#3fa4fd" stroke-width="2.5" stroke-linejoin="round"><path d="M84,56 C74,40 78,24 94,16 C90,30 94,42 102,50 Z"></path><path d="M156,56 C166,40 162,24 146,16 C150,30 146,42 138,50 Z"></path></g><path d="M111,44 L116,30 L120,40 L124,30 L129,44 Z" fill="#264653" stroke="#0e1a1f" stroke-width="2.5" stroke-linejoin="round"></path><path d="M120,40 C160,40 181,62 181,92 C181,122 155,137 120,137 C85,137 59,122 59,92 C59,62 80,40 120,40 Z" fill="#1d3557" stroke="#09101a" stroke-width="3"></path><ellipse cx="120" cy="112" rx="31" ry="19" fill="#2c5185"></ellipse><ellipse cx="110" cy="106" rx="3.2" ry="2.4" fill="#09101a"></ellipse><ellipse cx="130" cy="106" rx="3.2" ry="2.4" fill="#09101a"></ellipse><path d="M104,118 Q120,132 136,118" fill="none" stroke="#09101a" stroke-width="3.2" stroke-linecap="round"></path><ellipse cx="80" cy="108" rx="9" ry="5" fill="#ff8fab" opacity="0.45"></ellipse><ellipse cx="160" cy="108" rx="9" ry="5" fill="#ff8fab" opacity="0.45"></ellipse><g><ellipse cx="96" cy="86" rx="15" ry="17" fill="#fff"></ellipse><circle cx="97" cy="88" r="12" fill="#ffb703"></circle><circle cx="97" cy="89" r="7.5" fill="#1b1b2f"></circle><circle cx="101" cy="83" r="4" fill="#fff"></circle><circle cx="93" cy="93" r="2" fill="#fff" opacity="0.85"></circle></g><g><ellipse cx="144" cy="86" rx="15" ry="17" fill="#fff"></ellipse><circle cx="145" cy="88" r="12" fill="#ffb703"></circle><circle cx="145" cy="89" r="7.5" fill="#1b1b2f"></circle><circle cx="149" cy="83" r="4" fill="#fff"></circle><circle cx="141" cy="93" r="2" fill="#fff" opacity="0.85"></circle></g></g></g></g></svg>